<?xml version="1.0" encoding="UTF-8" standalone="no"?>
<svg
   xmlns:dc="http://purl.org/dc/elements/1.1/"
   xmlns:cc="http://creativecommons.org/ns#"
   xmlns:rdf="http://www.w3.org/1999/02/22-rdf-syntax-ns#"
   xmlns:svg="http://www.w3.org/2000/svg"
   xmlns="http://www.w3.org/2000/svg"
   xmlns:sodipodi="http://sodipodi.sourceforge.net/DTD/sodipodi-0.dtd"
   xmlns:inkscape="http://www.inkscape.org/namespaces/inkscape"
   id="Dragon"
   version="1.0"
   xml:space="preserve"
   viewBox="6.37 18.536 831.61638 360.4448"
   enable-background="new 6.37 18.536 464.873 332.941"
   y="0px"
   x="0px"
   inkscape:version="0.48.5 r10040"
   width="100%"
   height="100%"
   sodipodi:docname="MGE_LOGO.svg"
   inkscape:export-filename="/home/rrp/Downloads/Dragon--openclipart.org--177391-rrp.png"
   inkscape:export-xdpi="90"
   inkscape:export-ydpi="90"><defs
     id="defs8" /><sodipodi:namedview
     pagecolor="#ffffff"
     bordercolor="#666666"
     borderopacity="1"
     objecttolerance="10"
     gridtolerance="10"
     guidetolerance="10"
     inkscape:pageopacity="0"
     inkscape:pageshadow="2"
     inkscape:window-width="1920"
     inkscape:window-height="1009"
     id="namedview6"
     showgrid="false"
     inkscape:zoom="0.89656328"
     inkscape:cx="184.75381"
     inkscape:cy="263.04615"
     inkscape:window-x="0"
     inkscape:window-y="0"
     inkscape:window-maximized="1"
     inkscape:current-layer="Dragon"
     fit-margin-top="0"
     fit-margin-left="0"
     fit-margin-right="0"
     fit-margin-bottom="0" /><path
     id="Body"
     d="m 611.58284,267.61084 c 6.76633,-1.39135 28.59294,7.12459 40.68093,-3.6802 12.08799,-10.80479 18.0867,-10.0968 14.18598,-32.29049 -6.33927,-16.41237 -6.91367,-27.24175 -7.70181,-31.8084 -0.19895,-4.94241 -0.24657,-19.49811 4.34404,-28.43835 4.59166,-8.94121 12.0977,-19.27473 18.96032,-24.35097 6.86263,-5.07625 20.54027,-11.72584 21.67575,-13.0286 1.13442,-1.30277 4.98744,-5.43637 3.30697,-9.569 -1.67835,-4.1336 -4.04773,-4.3127 -5.57794,-5.88506 -1.52914,-1.57237 -2.09529,-2.50732 -2.12281,-3.23428 -0.0265,-0.72793 6.17161,-4.2684 11.4543,-5.70597 5.2848,-1.43756 21.13393,-2.65078 28.3426,-0.9879 7.20867,1.66191 20.88736,2.65078 23.65146,4.89715 2.76516,2.24638 4.69219,8.31149 0,15.81417 -4.69008,7.50268 -8.19494,16.39769 -9.62779,18.68932 -1.43284,2.29162 -6.81289,11.00752 -8.69125,13.07384 -1.87624,2.06632 -5.77688,5.70596 -6.46685,5.8398 -0.68996,0.13577 -3.20961,0.89932 -3.70381,-1.1227 -0.49419,-2.02203 -3.40644,-11.50148 -5.62767,-14.69147 -2.2244,-3.18902 -6.04288,-5.04518 -8.00512,-5.31063 -1.87731,-0.25395 -13.08013,6.40522 -14.80928,8.35468 -1.72809,2.33688 -8.54098,12.99447 -9.52831,15.78005 -0.98839,2.78655 -3.8509,15.99423 -3.06252,21.25054 0.78944,5.2563 3.15168,18.81504 7.20867,22.509 4.79487,4.36584 11.83783,19.56235 12.04901,23.04725 2.50259,3.85969 2.99611,20.52626 -2.09486,26.73548 -3.02477,7.61922 -10.95333,11.46378 -13.33562,13.29694 -1.38205,2.51598 -15.53568,15.41868 -18.3019,18.42862 -2.76621,3.00993 -26.8116,10.36493 -34.12186,13.95643 -7.30603,3.59343 -17.72537,7.63941 -22.21862,9.16652 -4.49325,1.52712 -34.06974,3.37005 -42.02129,3.05615 -7.94943,-0.31582 -30.31515,-1.52903 -37.03174,-2.60649 -6.71659,-1.07745 -12.59083,-1.34609 -12.98555,-0.85406 -0.39578,0.49491 -0.24551,7.50364 -5.38216,9.83956 -5.13666,2.33593 -14.56549,4.4475 -19.01006,5.8841 -4.44352,1.43853 -17.62696,3.18902 -21.3805,3.86496 -3.75249,0.67304 -20.39317,3.8197 -22.71281,4.58326 -2.31965,0.76355 -12.5792,1.93922 -13.08503,1.88626 -0.50689,-0.051 -2.86357,2.20208 -4.88797,2.87513 -2.02439,0.67304 -6.61606,0.44966 -7.11025,-0.54017 -0.49314,-0.98694 -1.09845,-0.98694 -1.32067,-0.95324 -0.22223,0.0337 -1.19369,1.30372 -1.51857,1.28061 -0.32381,-0.026 -0.74922,-0.70867 -1.18521,-0.74237 -0.43494,-0.0337 -2.88792,2.05573 -3.37047,2.25697 -0.4815,0.20316 -0.67621,0.11843 -0.96299,0 -0.28678,-0.11651 -0.50901,-1.26906 -0.55557,-1.44816 -0.0466,-0.17717 0.66668,-2.46013 1.11114,-3.04459 0.44446,-0.58254 -0.98733,-1.16796 -0.34604,-1.79575 0.64129,-0.62779 -0.29631,-5.97461 0.24657,-9.83957 0.54287,-3.86496 5.23401,-7.0068 7.2584,-7.5489 2.0244,-0.53824 6.3695,-1.52711 6.86369,-1.75049 0.49314,-0.22339 4.73982,-2.11158 5.57899,-2.78559 0.83918,-0.67497 6.76422,-2.56123 7.50498,-2.7875 0.74076,-0.22339 4.09853,-1.39135 4.83929,-1.66288 0.74076,-0.26864 2.27096,-0.62779 2.02439,-2.20208 -0.24656,-1.57237 -1.45401,-3.73305 -1.87624,-3.95162 -0.42223,-0.2205 -13.77605,-2.60649 -19.20689,-4.08834 -5.4319,-1.48379 -11.65324,-3.95451 -12.83846,-4.62852 -1.18522,-0.67304 -2.51753,-1.70717 -3.11014,-1.34802 -0.59261,0.35916 0.19789,2.24734 -0.54287,3.10141 -0.74077,0.85406 -9.52937,8.49058 -12.59084,11.59006 -3.06146,3.1014 -6.56738,8.71686 -9.5791,12.17645 -3.01173,3.45863 -4.05124,11.8428 -8.98894,13.01268 -4.93771,1.16796 -15.2089,0.22339 -20.98578,0.26864 -5.77689,0.0453 -10.46802,-0.62971 -14.66497,0.0453 -4.19694,0.67304 -10.31987,1.841 -11.20878,1.70524 -0.88891,-0.13576 -1.63497,-0.44388 -1.97466,-0.40441 -0.33969,0.0395 -1.22861,0.54499 -1.61698,0.64513 -0.38837,0.1011 -2.01804,0.38707 -2.3334,0.23686 -0.31429,-0.15213 -1.61062,0.0173 -1.90693,0.15021 -0.2963,0.13577 -1.36088,0.46603 -1.53655,0.389 -0.17672,-0.079 -0.78415,-0.63549 -1.34501,-0.63549 -0.56087,0 -2.44452,0.337 -2.7895,0.26864 -0.34604,-0.0655 -2.59266,0.0453 -4.04879,0.0453 -1.45612,0 -2.96305,0.0674 -3.70381,0.47181 -0.74076,0.4044 -2.07307,0.65282 -2.66674,0.60757 -0.59367,-0.0472 -1.23495,0.44966 -1.40745,0.49299 -0.17355,0.0453 -0.49419,-0.54017 -0.51853,-0.80881 -0.0243,-0.26864 0.98839,-1.88626 1.50586,-2.78558 0.51748,-0.89932 0.27091,-0.98695 1.40745,-1.82079 1.13654,-0.83096 1.30797,-0.94265 1.82756,-1.32395 0.51854,-0.38322 0.9376,-0.62971 0.88892,-0.72022 -0.0497,-0.0886 -0.33334,-0.0472 -0.66669,0.0905 -0.33334,0.13961 -2.54293,0.92146 -3.13553,1.25847 -0.59261,0.33893 -1.77783,1.14485 -2.32071,1.59451 -0.54287,0.44966 -1.30903,1.10249 -1.48152,0.92147 -0.17355,-0.18102 -0.47514,-1.3875 -0.44446,-1.66288 0.0307,-0.27634 1.40745,-4.04309 1.65402,-4.42727 0.24657,-0.3813 0.56827,-1.0322 1.0868,-1.45972 0.51854,-0.42655 -0.14815,-0.67497 -0.56827,-0.35915 -0.41906,0.3139 -1.60428,0.69808 -1.70269,0.9648 -0.0995,0.27057 -0.42012,-0.67305 -0.19789,-1.07745 0.22223,-0.40441 0.7651,-1.01198 1.0868,-1.4366 0.32065,-0.42655 1.06141,-1.05723 1.40745,-1.25847 0.34604,-0.20317 -0.88891,-0.40441 -1.35771,-0.27057 -0.4688,0.13576 -1.2593,-0.0655 -0.96299,-0.44966 0.2963,-0.38033 2.56727,-2.62767 3.20961,-2.92038 0.64235,-0.29175 3.80223,-1.83908 4.14721,-1.93152 0.34498,-0.0905 1.13548,-0.13384 1.40745,-0.22339 0.27091,-0.0905 3.15987,-1.88626 4.59166,-2.22519 1.43285,-0.337 3.62973,-0.29175 4.19695,-0.11265 0.56827,0.18198 2.24662,0.27056 2.71542,0.002 0.46879,-0.26864 1.40744,-1.82078 2.00005,-1.95366 0.59261,-0.13576 5.62873,-1.21322 7.33249,-1.504 1.70269,-0.29368 7.35682,-1.46164 8.71453,-1.50401 1.35771,-0.0452 6.37193,-4.23034 6.89047,-4.16198 0.51853,0.0674 2.91331,0.13769 3.0858,0.11266 0.17355,-0.0222 1.23495,-0.22339 1.35771,-0.33701 0.12381,-0.11265 -4.14721,-0.7183 -8.27008,-1.03412 -4.12286,-0.3139 -9.40661,-0.87429 -13.03528,-1.01005 -3.62868,-0.13577 -9.80134,0.13576 -11.89981,0.94265 -2.09847,0.80881 -4.59272,1.61762 -5.13559,1.57236 -0.54393,-0.0453 -1.35771,0.44966 -1.95032,0.56232 -0.59261,0.11266 -2.0244,0.0905 -2.71542,-0.0655 -0.69103,-0.15792 -1.77783,-0.69809 -2.24663,-0.67498 -0.46879,0.0231 -2.64134,-0.0221 -3.57999,0.67498 -0.93759,0.69615 -1.65402,0.87428 -2.04874,1.0553 -0.39577,0.18102 -1.43813,0.12999 -1.47517,-0.0568 -0.037,-0.18391 0.2963,-1.34802 0.53652,-1.71872 0.24022,-0.37071 1.33337,-2.67774 1.57359,-2.96371 0.24128,-0.2879 0.57356,-1.28062 0.74076,-1.46645 0.1672,-0.18391 0.42647,-1.04376 0.62965,-1.38076 0.20318,-0.33893 0.51536,-0.93687 0.44446,-1.07938 -0.0709,-0.1425 -1.61063,0.38708 -1.75878,0.35338 -0.14815,-0.0337 -1.01908,0.64127 -1.33337,0.77511 -0.3143,0.13576 -1.22861,0.0828 -1.30798,-0.077 -0.0794,-0.15984 0.75241,-1.75628 0.9376,-1.97677 0.18519,-0.22146 1.43284,-0.97635 1.57994,-1.12464 0.14815,-0.14828 1.12384,-1.15063 1.18521,-1.34609 0.0614,-0.19739 0.22223,-0.76548 0.0984,-0.89932 -0.12381,-0.13576 -1.80851,-0.55076 -1.87624,-0.80881 -0.0677,-0.25997 2.71542,-3.59343 5.18427,-4.8519 2.46886,-1.25943 3.2583,-1.61858 3.50487,-1.97773 0.24656,-0.36012 0.24656,-1.61859 1.28363,-2.11061 1.03707,-0.49492 2.81489,-0.90029 3.35776,-1.30373 0.54287,-0.40537 0.41377,-0.752 1.03707,-1.07745 0.62329,-0.32641 11.85006,-0.85503 18.81216,-0.2696 6.96211,0.5835 11.85007,0.35915 15.70098,-2.78559 3.85196,-3.14665 7.11025,-11.09707 4.88797,-15.94897 -2.22229,-4.8519 1.18521,-2.47072 -4.39378,-5.70596 -5.58005,-3.23428 -10.22145,-1.66028 -10.51776,-3.81615 -0.2963,-2.15682 -1.43178,0.13577 -4.39377,-2.78654 -2.96199,-2.92231 -8.79105,-1.42664 -9.67997,-4.79668 -0.88891,-3.36908 0.0984,-5.70597 0.49314,-6.24325 0.39578,-0.54113 -1.3757,-2.22904 -1.77783,-4.1336 -0.40107,-1.90551 0.24657,-14.37757 1.28363,-18.0615 1.03601,-3.68394 6.12293,-14.24181 7.25841,-15.63508 1.13548,-1.39231 1.7556,-1.56948 1.92598,-1.84101 0.16932,-0.27249 -0.44446,-2.69603 0.39472,-8.402 0.83918,-5.70597 4.93771,-12.13119 5.48058,-12.9843 0.54287,-0.8531 0.69102,-1.2575 0.74076,-1.66191 0.15556,-1.27388 -2.48367,-3.20828 -2.86357,-4.76235 -0.59261,-2.42643 -0.44446,-3.10044 -0.39472,-3.68394 0.0487,-0.5835 -0.69103,-1.96522 -1.72809,-2.42643 -1.03707,-0.46122 -4.64141,2.65078 -11.20879,4.2684 -6.56738,1.61762 -11.68392,0.70771 -13.13475,0.71926 -1.44978,0.0116 -20.04607,7.54697 -27.99656,12.17549 -7.94943,4.62755 -14.51682,8.49058 -15.70203,9.03075 -1.18522,0.53921 -4.93771,6.11037 -6.07319,6.55907 -1.13548,0.44966 -1.72809,1.07841 -1.48152,1.66288 0.24656,0.58349 0.5926,1.79671 0.88891,2.29163 0.2963,0.49395 0.98839,0.82518 0.74076,1.34705 -0.24657,0.52284 -1.18522,0.40441 -1.43284,0.31486 -0.24657,-0.0905 -1.38205,-1.03316 -1.7281,-1.12367 -0.34604,-0.0895 -2.07413,-0.67401 -2.37043,-1.12271 -0.29631,-0.44966 -0.7905,-0.31485 -1.48153,-0.94361 -0.69102,-0.62875 -6.91236,0.94361 -9.08491,0.49492 -2.17255,-0.44966 -5.97477,-1.66288 -6.27108,-2.20112 -0.2963,-0.54017 -1.03706,-0.85407 -1.3831,-0.67401 -0.34604,0.18005 -0.29631,1.84197 0.19789,2.78558 0.49419,0.94361 1.70798,2.27333 1.57993,2.60649 -0.12804,0.33219 -0.95452,0.10591 -1.33337,-0.0905 -0.37884,-0.19643 -6.56532,-6.48905 -7.06051,-8.49059 -1.19535,-1.55973 0.37986,-5.47743 0.37986,-5.47743 1.10905,-1.21829 12.28914,-4.57782 12.89963,-4.75419 21.39488,-6.18103 28.75544,-16.00029 27.86484,-18.97215 -1.32493,-4.42121 -15.51744,0.14154 -25.77061,4.83807 -1.35138,0.619 -21.32086,14.46222 -22.14813,12.91248 -4.50974,-4.6379 -3.94018,-5.88902 -3.15074,-9.43912 0.7905,-3.54914 -1.16829,-5.70597 -0.17355,-8.14877 1.40744,-3.45381 7.32613,-3.70031 11.57281,-5.54324 4.24668,-1.84101 13.75701,-8.30571 18.67037,-20.31847 4.62553,-11.30795 4.74934,-14.88308 4.66045,-16.1897 -0.0561,-0.80881 0.95594,-4.65654 1.43696,-7.67616 l 6.55075,-9.11738 c 1.24906,-1.28897 2.37158,-2.55147 3.15229,-3.6761 2.94505,-4.24048 10.56643,-10.19872 11.70297,-10.871765 1.13549,-0.674009 1.95667,-1.186256 2.22229,-1.393273 0.30265,-0.23494 0.19789,-2.515015 0.54287,-3.503882 0.34604,-0.988867 1.28364,-1.977735 1.72809,-2.246375 0.40531,-0.268641 1.5355,-0.55365 1.91223,-1.014865 l 0.0497,-0.0077 c 0.18413,-0.225311 4.09958,-11.302164 12.56649,-19.695499 8.87009,-8.791962 22.32338,-14.88115 23.15727,-13.432994 1.05082,1.825601 -9.52921,3.995454 -18.11993,15.856083 -3.562,4.917375 -5.50085,10.329157 -5.72837,15.818477 0,0 0.7905,2.964676 1.33338,3.10044 0.54287,0.134802 1.65401,-0.01733 1.97465,-0.54017 0.32065,-0.521875 -3.65407,-7.50268 11.3072,-17.970999 13.05117,-9.130893 32.6877,-12.152378 33.08242,-11.57947 0.21905,0.317747 -9.83626,5.221642 -17.57827,10.456764 -6.22769,4.211592 -10.54316,8.919062 -9.97383,9.480415 1.27728,1.257508 56.48625,-14.635619 57.25241,-13.770962 0.76616,0.864657 -17.99733,6.873926 -19.47886,17.723542 -0.84658,6.20088 9.45636,5.773366 24.07158,6.671724 14.61629,0.89932 27.78703,1.775531 27.82407,2.448577 0.037,0.674009 -17.72643,3.550101 -20.63974,9.749052 -2.91331,6.19992 -0.54287,11.63628 4.49325,13.07385 5.03612,1.43756 29.03303,4.49534 29.94456,5.10335 -0.18691,0.5175 -6.55236,3.9948 -8.14394,7.09332 -1.59264,3.10044 -4.29642,6.84022 -3.03607,10.31137 1.25824,3.47018 5.18428,5.2226 8.1833,5.29 3.00009,0.0664 7.97241,3.64414 10.34285,3.91471 2.37043,0.26864 3.93215,2.3785 5.19592,4.08641 -0.50231,3.06827 -3.81217,5.98372 -4.66405,7.3327 -0.85187,1.34705 -2.5094,6.50214 -2.62157,8.01866 -0.11006,1.51652 -0.40742,4.00939 1.0741,5.35741 1.48153,1.34705 5.33277,3.09385 5.73985,3.40278 3.91745,2.97283 21.63992,0.68959 22.99169,-1.77505 0.41302,-0.75302 2.41968,-3.78479 2.56783,-4.8632 0.13757,-1.06879 -0.17364,-3.69125 0.65611,-4.44623 l 0.0116,-0.0106 c 0.82678,-0.75228 -0.32076,-10.19251 -1.85243,-15.12134 -0.43321,-5.07421 -3.14348,-14.69874 -4.25462,-16.61966 -1.11115,-1.91996 -2.55563,-5.11091 -2.98739,-5.69441 -0.43387,-0.57869 -2.763,-5.5658 -4.41654,-7.36909 -0.56355,-1.71374 -9.94048,-6.74851 -10.18599,-7.76048 -0.24657,-1.01102 11.10931,-6.60336 16.66502,-8.69279 5.55466,-2.08943 13.57816,-4.44749 13.70198,-5.45851 0.12381,-1.01101 -2.88792,-3.774447 -7.18433,-6.53692 -4.29536,-2.762473 -15.47612,-4.417494 -15.32797,-5.698111 0.14815,-1.280616 7.23108,-3.739049 33.49955,-7.26604 11.10931,-1.617621 22.73715,-4.514896 38.14393,-6.199918 15.40573,-1.684059 32.6623,-3.773486 45.62352,-2.358068 12.96121,1.415419 24.86849,2.815078 39.53239,9.756405 14.66391,6.941327 33.7745,21.160982 36.44125,23.653852 2.66568,2.49287 5.85096,4.58326 4.96098,5.79648 -0.88891,1.21322 -26.66318,-0.67401 -39.69847,10.37781 -13.03529,11.05182 -20.2532,15.1623 -21.21619,23.11464 -0.96193,7.95235 3.81146,13.41085 5.73638,17.52134 1.92598,4.11146 5.48164,9.50256 4.59273,10.64838 -0.88892,1.14581 -22.2927,-3.97665 -27.62512,4.78546 -5.33243,8.76019 -7.21407,12.15044 -5.65847,15.92393 1.5556,3.77445 5.25941,7.17723 4.59272,8.08714 -0.66668,0.90895 -7.53434,0.37173 -17.75791,5.80809 -10.22039,5.43636 -13.97916,14.58297 -14.0797,15.61709 -0.0995,1.03412 8.04679,2.38118 12.19506,2.87417 4.14826,0.49299 10.02462,1.03316 12.88819,1.03316 2.86358,0 9.47964,-1.84197 10.0733,-0.85407 0.59473,0.98694 -9.67858,6.42427 -10.86274,13.47825 -1.18522,7.05398 -1.72491,2.94485 0.39684,6.7193 -2.9356,13.93106 7.85119,-1.04593 17.03827,9.33458 9.18707,10.38049 14.36156,12.23012 21.12577,10.83685 z M 302.3961,139.34395 c 6.45574,6.90149 23.28858,4.71201 26.0704,-1.40095 2.86087,-6.28666 -3.76908,-10.19403 -12.90729,-10.28188 -8.72825,0.23977 -17.0879,3.97769 -13.16311,11.68283 z"
     inkscape:connector-curvature="0"
     sodipodi:nodetypes="scccccscscscscscsccscscscccccsscccccccccsscccscssccccscssccsscccccsccccccscccccccccscccccccsccscscccscccsscsccccccccccccsccsccccccsscccssscccccccccsccsscsssccccccccccccccccccsssccccccccccccsccsccccsccccccccscccsccccscsscssccccccssccscsscccscccscccsccccscscc"
     style="fill:none;stroke:#000000;stroke-width:3.02827454;stroke-miterlimit:4;stroke-opacity:0.49491523;stroke-dasharray:none" /><metadata
     id="metadata4"><rdf:RDF><cc:Work><dc:format>image/svg+xml</dc:format><dc:type
           rdf:resource="http://purl.org/dc/dcmitype/StillImage" /><cc:license
           rdf:resource="http://creativecommons.org/licenses/by/3.0/" /><dc:publisher><cc:Agent
             rdf:about="http://openclipart.org/"><dc:title /></cc:Agent></dc:publisher><dc:title></dc:title><dc:date>2015-06-14T18:06:47</dc:date><dc:description>MGE Logo in SVG and AsciArt</dc:description><dc:source /><dc:creator><cc:Agent><dc:title>Robert Paciorek</dc:title></cc:Agent></dc:creator><dc:subject><rdf:Bag /></dc:subject><dc:contributor><cc:Agent><dc:title>Based on https://openclipart.org/detail/177391/dragon-by-denschub-177391 by denschub (PubluicDomain / CC0)
Base version of AsciArt generated by http://asciiart.club/</dc:title></cc:Agent></dc:contributor></cc:Work><cc:License
         rdf:about="http://creativecommons.org/licenses/by/3.0/"><cc:permits
           rdf:resource="http://creativecommons.org/ns#Reproduction" /><cc:permits
           rdf:resource="http://creativecommons.org/ns#Distribution" /><cc:requires
           rdf:resource="http://creativecommons.org/ns#Notice" /><cc:requires
           rdf:resource="http://creativecommons.org/ns#Attribution" /><cc:permits
           rdf:resource="http://creativecommons.org/ns#DerivativeWorks" /></cc:License></rdf:RDF></metadata><text
     xml:space="preserve"
     style="font-size:17.29999924px;font-style:normal;font-variant:normal;font-weight:normal;font-stretch:normal;text-align:center;line-height:125%;letter-spacing:0px;word-spacing:0px;text-anchor:middle;fill:#ff0000;fill-opacity:1;stroke:none;font-family:DejaVu Sans Mono;-inkscape-font-specification:DejaVu Sans Mono"
     x="6.3699818"
     y="31.375843"
     id="text3916"
     textLength="12200" lengthAdjust="spacingAndGlyphs"
     sodipodi:linespacing="125%"><tspan
       sodipodi:role="line"
       x="6.3699818"
       y="31.375843"
       id="tspan3942"
       style="font-weight:bold;text-align:start;text-anchor:start;fill:#ff0000;fill-opacity:1;-inkscape-font-specification:DejaVu Sans Mono Bold">/*******************************************************************************</tspan><tspan
       sodipodi:role="line"
       x="6.3699818"
       y="53.000843"
       style="font-weight:bold;text-align:start;text-anchor:start;fill:#ff0000;fill-opacity:1;-inkscape-font-specification:DejaVu Sans Mono Bold"
       id="tspan4038" /><tspan
       sodipodi:role="line"
       x="6.3699818"
       y="74.625839"
       style="font-weight:bold;text-align:start;text-anchor:start;fill:#ff0000;fill-opacity:1;-inkscape-font-specification:DejaVu Sans Mono Bold"
       id="tspan4040">                             /} /}_,          __,,,----,,,                   </tspan><tspan
       sodipodi:role="line"
       x="6.3699818"
       y="96.250839"
       style="font-weight:bold;text-align:start;text-anchor:start;fill:#ff0000;fill-opacity:1;-inkscape-font-specification:DejaVu Sans Mono Bold"
       id="tspan4042">                            /{^^   '--..    &lt;             `^\                </tspan><tspan
       sodipodi:role="line"
       x="6.3699818"
       y="117.87584"
       style="font-weight:bold;text-align:start;text-anchor:start;fill:#ff0000;fill-opacity:1;-inkscape-font-specification:DejaVu Sans Mono Bold"
       id="tspan4044">    DRAGON'S              =# _       (___  &lt;^^             _,^    ,~+'~=)    </tspan><tspan
       sodipodi:role="line"
       x="6.3699818"
       y="139.50084"
       style="font-weight:bold;text-align:start;text-anchor:start;fill:#ff0000;fill-opacity:1;-inkscape-font-specification:DejaVu Sans Mono Bold"
       id="tspan4046">    GAMES                |  (_)         /   \            ,/      ,`     /    </tspan><tspan
       sodipodi:role="line"
       x="6.3699818"
       y="161.12584"
       style="font-weight:bold;text-align:start;text-anchor:start;fill:#ff0000;fill-opacity:1;-inkscape-font-specification:DejaVu Sans Mono Bold"
       id="tspan4048">    ENGINE             _/               ^') |           (      /`  /^\ /     </tspan><tspan
       sodipodi:role="line"
       x="6.3699818"
       y="182.75084"
       style="font-weight:bold;text-align:start;text-anchor:start;fill:#ff0000;fill-opacity:1;-inkscape-font-specification:DejaVu Sans Mono Bold"
       id="tspan4050">                      /,.~|  ,..~=       (__/         ,~~&gt;     ^  /   `      </tspan><tspan
       sodipodi:role="line"
       x="6.3699818"
       y="204.37584"
       style="font-weight:bold;text-align:start;text-anchor:start;fill:#ff0000;fill-opacity:1;-inkscape-font-specification:DejaVu Sans Mono Bold"
       id="tspan4052">                 ~~%  ^/^`,+`    /          ...      _&gt;       ]   |          </tspan><tspan
       sodipodi:role="line"
       x="6.3699818"
       y="226.00084"
       style="font-weight:bold;text-align:start;text-anchor:start;fill:#ff0000;fill-opacity:1;-inkscape-font-specification:DejaVu Sans Mono Bold"
       id="tspan4054">                  ~~%  '``      /              ....,___       },  \          </tspan><tspan
       sodipodi:role="line"
       x="6.3699818"
       y="247.62584"
       style="font-weight:bold;text-align:start;text-anchor:start;fill:#ff0000;fill-opacity:1;-inkscape-font-specification:DejaVu Sans Mono Bold"
       id="tspan4056">                               (                      {       |    )         </tspan><tspan
       sodipodi:role="line"
       x="6.3699818"
       y="269.25082"
       style="font-weight:bold;text-align:start;text-anchor:start;fill:#ff0000;fill-opacity:1;-inkscape-font-specification:DejaVu Sans Mono Bold"
       id="tspan4058">  rrp@opcode.eu.org             '=,                   ^\,,__--`   _,         </tspan><tspan
       sodipodi:role="line"
       x="6.3699818"
       y="290.87582"
       style="font-weight:bold;text-align:start;text-anchor:start;fill:#ff0000;fill-opacity:1;-inkscape-font-specification:DejaVu Sans Mono Bold"
       id="tspan4060">  http://dge.opcode.eu.org    _,,,}....                         ,}           </tspan><tspan
       sodipodi:role="line"
       x="6.3699818"
       y="312.50082"
       style="font-weight:bold;text-align:start;text-anchor:start;fill:#ff0000;fill-opacity:1;-inkscape-font-specification:DejaVu Sans Mono Bold"
       id="tspan4062">                             (___ ..'  &gt;~.,                 ,=+^             </tspan><tspan
       sodipodi:role="line"
       x="6.3699818"
       y="334.12582"
       style="font-weight:bold;text-align:start;text-anchor:start;fill:#ff0000;fill-opacity:1;-inkscape-font-specification:DejaVu Sans Mono Bold"
       id="tspan4064">                               /_____,^  /_____,}^'^++++'^``                 </tspan><tspan
       sodipodi:role="line"
       x="6.3699818"
       y="355.75082"
       style="font-weight:bold;text-align:start;text-anchor:start;fill:#ff0000;fill-opacity:1;-inkscape-font-specification:DejaVu Sans Mono Bold"
       id="tspan4066" /><tspan
       sodipodi:role="line"
       x="6.3699818"
       y="377.37582"
       style="font-weight:bold;text-align:start;text-anchor:start;fill:#ff0000;fill-opacity:1;-inkscape-font-specification:DejaVu Sans Mono Bold"
       id="tspan4068">*******************************************************************************/</tspan><tspan
       sodipodi:role="line"
       x="6.3699818"
       y="399.00082"
       style="font-weight:bold;text-align:start;text-anchor:start;fill:#ff0000;fill-opacity:1;-inkscape-font-specification:DejaVu Sans Mono Bold"
       id="tspan4070" /></text>
<text
     xml:space="preserve"
     style="font-size:17.29999924px;font-style:normal;font-variant:normal;font-weight:normal;font-stretch:normal;text-align:center;line-height:125%;letter-spacing:0px;word-spacing:0px;text-anchor:middle;fill:#000000;fill-opacity:1;stroke:none;font-family:DejaVu Sans Mono;-inkscape-font-specification:DejaVu Sans Mono"
     x="130.17606"
     y="113.35553"
     id="text3944"
     sodipodi:linespacing="125%"><tspan
       sodipodi:role="line"
       id="tspan3946"
       x="130.17606"
       y="113.35553" /></text>
</svg>
